<?xml version="1.0" standalone="no"?>
<!DOCTYPE svg PUBLIC "-//W3C//DTD SVG 20010904//EN"
 "http://www.w3.org/TR/2001/REC-SVG-20010904/DTD/svg10.dtd">
<svg version="1.0" xmlns="http://www.w3.org/2000/svg"
 width="2048.000000pt" height="2048.000000pt" viewBox="0 0 2048.000000 2048.000000"
 preserveAspectRatio="xMidYMid meet">

<g transform="translate(0.100000,2048.000000) scale(0.10000,-0.100000)"
fill="#ffffff" stroke="1">
<path d="M9134 15833 l-1100 -3398 -2924 -7 c-1609 -5 -3226 -11 -3594 -15
l-668 -8 2891 -2095 c1590 -1152 2891 -2098 2891 -2102 0 -4 -495 -1545 -1099
-3425 -605 -1880 -1099 -3419 -1098 -3419 1 -1 173 123 382 275 209 153 1509
1100 2890 2105 2290 1668 2511 1827 2530 1815 11 -7 1322 -952 2914 -2101
1591 -1149 2894 -2088 2896 -2086 2 2 -494 1526 -1101 3387 -607 1861 -1105
3390 -1106 3397 -2 9 3733 2750 5637 4136 83 60 151 113 153 116 1 4 -1606 6
-3572 4 l-3573 -3 -114 348 c-63 191 -567 1726 -1119 3410 -553 1685 -1008
3063 -1011 3063 -3 0 -500 -1529 -1105 -3397z m2122 -1000 l929 -2833 3094 -2
3094 -3 -2509 -1834 c-1380 -1009 -2510 -1835 -2512 -1836 -1 -1 429 -1324
957 -2941 527 -1616 957 -2941 956 -2942 -2 -2 -1136 814 -2521 1814 -1385
999 -2523 1817 -2528 1817 -6 0 -279 -195 -606 -433 -2863 -2087 -4394 -3200
-4396 -3197 -2 2 422 1326 942 2943 520 1616 947 2950 950 2964 4 23 -181 159
-2502 1840 l-2506 1815 1669 6 c917 3 2298 7 3068 8 770 0 1423 4 1450 7 l50
6 950 2935 c522 1614 952 2936 954 2939 7 6 -73 249 1017 -3073z"/>
</g>
</svg>
